{"glyphs":{":":{"x_min":0,"x_max":236,"ha":236,"o":"m 12 78 q 12 96 19 112 q 26 128 37 139 q 49 150 65 157 q 81 164 100 164 q 118 164 134 157 q 150 150 162 139 q 174 128 181 112 q 188 96 188 78 q 188 60 181 45 q 174 29 162 18 q 150 6 134 0 q 118 -7 100 -7 q 81 -7 65 0 q 49 6 37 18 q 26 29 19 45 q 12 60 12 78 z m 60 420 q 60 438 67 454 q 74 469 85 480 q 97 492 113 499 q 129 506 148 506 q 166 506 182 499 q 198 492 210 480 q 222 469 229 454 q 236 438 236 420 q 236 402 229 386 q 222 370 210 359 q 198 348 182 341 q 166 334 148 334 q 129 334 113 341 q 97 348 85 359 q 74 370 67 386 q 60 402 60 420 z"},"$":{"x_min":0,"x_max":580,"ha":580,"o":"m 188 -3 q 160 2 133 10 q 106 18 82 30 q 58 42 37 56 q 16 71 1 88 l 56 154 q 63 163 73 168 q 84 174 95 174 q 107 174 118 168 q 130 161 144 152 q 158 142 174 133 q 192 124 214 118 l 256 314 q 224 322 193 335 q 162 348 137 368 q 112 388 96 418 q 81 448 81 493 q 81 538 100 580 q 118 622 153 656 q 188 689 237 710 q 286 731 348 734 l 361 790 q 364 804 376 815 q 388 826 405 826 l 460 826 l 438 728 q 492 718 527 696 q 563 674 587 648 l 544 595 q 534 582 525 577 q 516 572 504 572 q 496 572 487 576 q 478 580 466 585 q 454 591 441 597 q 428 603 412 608 l 372 424 q 404 414 436 401 q 468 388 493 369 q 518 350 534 322 q 550 294 550 253 q 550 203 531 158 q 512 112 477 78 q 442 42 392 20 q 342 -2 278 -6 l 264 -72 q 262 -85 249 -96 q 236 -106 220 -106 l 165 -106 z m 404 218 q 404 244 387 260 q 370 276 342 287 l 304 114 q 354 122 379 148 q 404 174 404 218 z m 225 526 q 225 498 242 482 q 260 465 287 453 l 322 611 q 295 608 276 600 q 258 592 246 580 q 235 569 230 555 q 225 541 225 526 z"},"?":{"x_min":0,"x_max":410,"ha":410,"o":"m 69 661 q 88 676 110 690 q 132 704 156 714 q 181 724 208 730 q 236 736 267 736 q 310 736 342 724 q 374 712 395 691 q 416 671 426 644 q 437 618 437 588 q 437 545 426 516 q 416 486 399 466 q 382 444 362 429 q 342 414 322 400 q 303 385 288 368 q 272 352 265 329 l 243 258 l 140 258 l 140 338 q 140 364 152 385 q 164 405 181 422 q 199 439 220 454 q 240 469 258 485 q 276 500 287 519 q 299 537 299 560 q 299 587 286 603 q 272 619 239 619 q 216 619 199 613 q 182 608 170 601 q 157 594 148 588 q 138 582 129 582 q 119 582 112 587 q 105 591 101 600 z m 92 78 q 92 96 99 112 q 106 128 117 139 q 129 150 145 157 q 161 164 180 164 q 198 164 214 157 q 230 150 242 139 q 254 128 261 112 q 268 96 268 78 q 268 60 261 45 q 254 29 242 18 q 230 6 214 0 q 198 -7 180 -7 q 161 -7 145 0 q 129 6 117 18 q 106 29 99 45 q 92 60 92 78 z"},"<":{"x_min":0,"x_max":534,"ha":534,"o":"m 76 368 l 506 580 l 493 472 q 492 460 484 451 q 478 441 463 434 l 312 358 q 298 350 283 346 q 268 341 252 337 q 268 333 281 329 q 295 324 307 318 l 440 240 q 461 229 461 209 q 461 205 460 203 l 446 96 l 68 307 z"},"'":{"x_min":0,"x_max":227,"ha":227,"o":"m 238 728 l 220 584 l 197 506 q 190 480 176 466 q 164 452 138 452 q 116 452 106 466 q 96 480 94 506 l 90 584 l 108 728 z"},"=":{"x_min":0,"x_max":580,"ha":580,"o":"m 70 298 l 523 298 l 509 192 l 56 192 z m 93 480 l 545 480 l 532 372 l 79 372 z"},"a":{"x_min":0,"x_max":532,"ha":532,"o":"m 450 0 l 367 0 q 352 0 343 4 q 333 8 327 14 q 322 20 319 30 q 317 38 317 49 l 317 86 q 285 42 246 17 q 207 -8 160 -8 q 132 -8 106 3 q 80 14 60 37 q 40 60 28 95 q 16 130 16 178 q 16 249 42 312 q 68 376 114 423 q 160 470 224 498 q 287 526 363 526 q 400 526 438 522 q 476 516 513 504 z m 222 114 q 239 114 255 127 q 271 140 285 162 q 300 184 312 214 q 324 243 332 276 l 350 420 l 341 420 q 303 420 272 403 q 240 386 218 357 q 196 328 183 289 q 171 250 171 206 q 171 181 175 164 q 179 146 186 135 q 192 124 202 120 q 211 114 222 114 z"},"L":{"x_min":0,"x_max":478,"ha":478,"o":"m 201 130 l 446 130 l 430 0 l 22 0 l 112 728 l 275 728 z"},"3":{"x_min":0,"x_max":580,"ha":580,"o":"m 375 736 q 424 736 462 722 q 500 708 526 685 q 552 662 565 631 q 578 600 578 566 q 578 526 570 496 q 562 467 545 446 q 529 425 505 411 q 480 397 448 388 q 500 367 526 331 q 551 294 551 243 q 551 202 540 167 q 529 132 510 104 q 490 76 464 56 q 437 34 406 20 q 374 6 339 -1 q 304 -8 267 -8 q 215 -8 176 3 q 136 14 108 38 q 79 62 60 98 q 42 135 31 186 l 101 213 q 110 217 119 218 q 128 220 136 220 q 152 220 163 214 q 174 208 179 196 q 196 153 219 133 q 242 114 281 114 q 310 114 332 124 q 355 134 370 151 q 386 168 394 192 q 402 215 402 240 q 402 258 396 273 q 391 288 375 298 q 360 309 332 315 q 304 320 258 320 l 272 423 q 318 424 348 431 q 378 439 396 453 q 414 468 422 488 q 429 509 429 536 q 429 574 409 594 q 390 614 351 614 q 314 614 288 594 q 261 574 248 546 q 238 524 224 514 q 210 505 190 505 q 186 505 181 506 q 176 506 170 507 l 93 520 q 108 574 135 615 q 162 655 199 682 q 236 709 281 722 q 326 736 375 736 z"},";":{"x_min":0,"x_max":236,"ha":236,"o":"m 12 88 q 12 104 18 118 q 24 132 35 142 q 46 152 62 158 q 77 164 96 164 q 118 164 135 156 q 152 148 162 135 q 174 122 179 105 q 184 88 184 68 q 184 44 176 15 q 168 -13 152 -42 q 136 -70 113 -98 q 90 -125 59 -148 l 32 -124 q 26 -118 24 -114 q 21 -109 21 -102 q 21 -94 30 -84 q 38 -74 50 -62 q 61 -49 72 -33 q 83 -18 88 2 q 71 4 57 11 q 43 18 33 29 q 23 40 18 56 q 12 70 12 88 z m 59 420 q 59 438 66 454 q 72 469 84 480 q 96 492 112 499 q 128 506 147 506 q 166 506 182 499 q 198 492 210 480 q 222 469 228 454 q 235 438 235 420 q 235 402 228 386 q 222 370 210 359 q 198 348 182 341 q 166 334 147 334 q 128 334 112 341 q 96 348 84 359 q 72 370 66 386 q 59 402 59 420 z"},"J":{"x_min":0,"x_max":394,"ha":394,"o":"m 344 262 q 336 200 316 151 q 296 102 264 66 q 230 30 185 11 q 139 -8 80 -8 q 54 -8 28 -5 q 3 -2 -24 5 l -12 98 q -10 111 -3 119 q 4 128 20 128 q 32 128 47 125 q 62 122 80 122 q 120 122 146 154 q 172 186 181 258 l 238 728 l 401 728 z"},"V":{"x_min":0,"x_max":684,"ha":684,"o":"m 59 728 l 190 728 q 211 728 224 718 q 236 708 239 693 l 315 292 q 320 267 326 236 q 332 206 336 174 q 346 206 360 236 q 374 266 384 292 l 554 693 q 557 700 562 706 q 568 712 576 718 q 584 722 593 726 q 602 728 612 728 l 744 728 l 386 0 l 238 0 z"},"\"":{"x_min":0,"x_max":414,"ha":414,"o":"m 238 728 l 220 584 l 197 506 q 190 480 176 466 q 164 452 138 452 q 116 452 106 466 q 96 480 94 506 l 90 584 l 108 728 z m 426 728 l 408 584 l 385 506 q 378 480 364 466 q 352 452 326 452 q 304 452 294 466 q 284 480 282 506 l 278 584 l 296 728 z"},"7":{"x_min":0,"x_max":580,"ha":580,"o":"m 612 728 l 605 671 q 602 651 598 634 q 593 617 586 606 l 243 33 q 234 19 218 10 q 202 0 186 0 l 60 0 l 388 530 q 400 550 414 566 q 428 582 444 598 l 119 598 q 106 598 98 606 q 89 616 89 627 q 89 632 90 644 q 92 655 94 669 q 96 683 98 698 q 100 714 102 728 z"},"S":{"x_min":0,"x_max":500,"ha":500,"o":"m 471 582 q 462 570 454 565 q 445 560 433 560 q 422 560 410 567 q 398 574 384 584 q 370 592 352 600 q 333 608 308 608 q 285 608 268 601 q 250 594 239 583 q 228 572 222 556 q 216 540 216 522 q 216 502 227 488 q 238 475 257 465 q 276 454 300 446 q 323 438 348 428 q 372 418 396 404 q 420 392 439 372 q 458 352 469 325 q 480 298 480 259 q 480 204 461 156 q 442 107 406 71 q 371 34 320 13 q 270 -8 206 -8 q 174 -8 143 -1 q 111 6 82 19 q 52 32 28 49 q 2 66 -15 88 l 43 164 q 50 172 60 178 q 70 184 81 184 q 95 184 108 174 q 122 164 138 152 q 154 140 175 131 q 196 121 227 121 q 272 121 297 146 q 322 170 322 219 q 322 242 311 256 q 300 270 281 280 q 263 290 240 298 q 216 306 192 315 q 167 324 144 336 q 120 348 102 368 q 84 388 72 417 q 61 446 61 488 q 61 536 79 581 q 98 626 132 660 q 166 694 214 715 q 262 736 323 736 q 354 736 383 729 q 412 722 438 711 q 464 700 484 684 q 506 668 520 650 z"},"}":{"x_min":0,"x_max":276,"ha":276,"o":"m 215 76 q 215 18 202 -25 q 190 -69 164 -99 q 138 -129 97 -144 q 56 -160 0 -160 l -24 -160 l -15 -96 q -12 -81 -1 -74 q 10 -67 19 -67 q 47 -66 62 -46 q 76 -26 81 10 q 84 36 86 61 q 87 85 88 108 q 88 130 89 152 q 90 174 92 196 q 94 215 101 233 q 108 250 119 266 q 130 280 146 292 q 161 302 180 308 q 148 320 133 346 q 118 372 118 404 q 118 432 124 460 q 130 486 137 514 q 144 540 150 568 q 156 596 156 626 q 156 652 145 668 q 134 684 111 685 q 107 685 102 686 q 98 688 94 690 q 90 694 87 698 q 84 702 84 709 q 84 710 85 718 q 86 726 87 735 q 88 745 89 753 q 90 762 90 762 l 92 778 l 116 778 q 160 778 192 767 q 224 756 245 736 q 266 716 275 689 q 285 661 285 628 q 285 596 278 567 q 272 538 264 510 q 257 482 250 456 q 244 428 244 402 q 244 379 253 365 q 262 350 284 350 l 274 267 q 256 267 244 259 q 232 252 226 236 q 220 220 217 196 q 215 172 215 139 z"},"Z":{"x_min":0,"x_max":560,"ha":560,"o":"m 606 728 l 599 680 q 598 670 593 660 q 588 652 582 643 l 214 126 l 522 126 l 506 0 l -14 0 l -8 48 q -6 58 -2 67 q 3 76 9 84 l 378 603 l 86 603 l 102 728 z"},"x":{"x_min":0,"x_max":538,"ha":538,"o":"m 174 281 l 58 518 l 200 518 q 215 518 222 514 q 228 510 233 500 l 290 367 q 294 374 298 380 q 302 386 306 392 l 374 498 q 387 518 407 518 l 548 518 l 368 282 l 497 0 l 355 0 q 340 0 331 8 q 322 16 318 27 l 254 186 q 251 180 248 175 q 245 170 242 166 l 150 27 q 143 16 133 8 q 124 0 109 0 l -28 0 z"},")":{"x_min":0,"x_max":276,"ha":276,"o":"m 129 412 q 129 446 127 482 q 124 519 120 556 q 116 594 108 629 q 101 665 91 696 q 89 702 88 707 q 86 712 86 717 q 86 730 94 739 q 102 747 112 752 l 183 791 q 203 749 217 703 q 232 656 241 609 q 250 561 254 514 q 259 466 259 423 q 259 345 249 271 q 238 198 216 126 q 192 54 156 -18 q 119 -90 66 -165 l 4 -127 q -3 -122 -8 -116 q -14 -110 -14 -100 q -14 -94 -10 -87 q -8 -80 -2 -70 q 26 -18 51 38 q 75 94 92 154 q 110 214 119 279 q 129 344 129 412 z"},"&":{"x_min":0,"x_max":667,"ha":667,"o":"m 366 736 q 411 736 444 722 q 478 708 500 686 q 522 663 534 632 q 545 602 545 568 l 455 551 q 446 550 440 550 q 429 550 422 555 q 416 560 412 572 q 395 626 352 626 q 335 626 322 618 q 308 610 300 597 q 290 584 286 566 q 281 549 281 530 q 281 510 288 488 q 294 466 311 440 l 447 260 q 474 316 486 379 q 489 392 496 401 q 504 410 518 410 l 624 410 q 614 336 589 272 q 564 209 526 158 l 645 0 l 515 0 q 497 0 484 2 q 472 4 462 10 q 452 14 443 22 q 435 30 426 42 l 417 53 q 373 24 324 8 q 274 -8 221 -8 q 170 -8 132 5 q 92 18 66 43 q 40 68 26 103 q 13 138 13 180 q 13 218 25 252 q 36 285 57 313 q 78 342 106 364 q 134 387 168 404 q 154 434 148 464 q 142 494 142 520 q 142 564 158 603 q 173 642 202 672 q 231 701 272 718 q 314 736 366 736 z m 167 200 q 167 179 172 162 q 176 145 186 133 q 196 120 213 114 q 230 107 253 107 q 279 107 304 116 q 329 125 352 142 l 222 320 q 190 294 179 264 q 167 233 167 200 z"},"_":{"x_min":0,"x_max":363,"ha":363,"o":"m 326 -57 l 314 -150 l -49 -150 l -37 -57 z"},"v":{"x_min":0,"x_max":519,"ha":519,"o":"m 33 518 l 161 518 q 177 518 186 511 q 196 503 198 492 l 232 259 q 236 230 240 201 q 242 173 244 144 q 254 172 264 200 q 275 228 287 259 l 378 492 q 382 504 394 511 q 406 518 419 518 l 542 518 l 290 0 l 159 0 z"},"O":{"x_min":0,"x_max":732,"ha":732,"o":"m 734 411 q 734 352 720 298 q 706 244 681 198 q 656 151 620 113 q 584 75 540 48 q 496 22 444 7 q 392 -8 334 -8 q 262 -8 205 17 q 148 42 108 86 q 68 130 46 189 q 25 248 25 317 q 25 376 39 430 q 52 484 78 531 q 103 578 139 616 q 175 654 220 680 q 264 707 316 722 q 368 736 426 736 q 498 736 555 711 q 612 686 652 642 q 692 598 713 538 q 734 479 734 411 z m 567 407 q 567 452 556 489 q 546 526 525 552 q 504 578 474 592 q 444 606 406 606 q 356 606 316 586 q 277 565 249 528 q 222 490 207 437 q 192 384 192 320 q 192 276 202 239 q 213 202 233 176 q 254 150 284 136 q 314 122 352 122 q 402 122 442 142 q 482 163 509 200 q 537 238 552 290 q 567 343 567 407 z"},"(":{"x_min":0,"x_max":276,"ha":276,"o":"m 164 214 q 164 180 166 144 q 168 107 173 70 q 178 32 185 -3 q 192 -39 202 -70 q 204 -76 205 -81 q 206 -86 206 -91 q 206 -104 199 -113 q 192 -121 181 -126 l 110 -165 q 90 -123 76 -77 q 62 -30 52 17 q 43 64 38 112 q 34 160 34 203 q 34 281 44 355 q 54 428 78 500 q 100 572 137 644 q 174 716 227 791 l 289 753 q 296 748 301 742 q 306 736 306 726 q 306 720 304 713 q 300 706 295 696 q 266 644 242 588 q 218 532 201 472 q 184 411 174 346 q 164 282 164 214 z"},"C":{"x_min":0,"x_max":591,"ha":591,"o":"m 339 126 q 366 126 387 130 q 407 134 422 141 q 436 148 446 155 q 456 163 464 170 q 472 176 479 180 q 486 184 494 184 q 502 184 507 182 q 512 179 515 176 l 572 107 q 524 50 459 21 q 394 -8 311 -8 q 242 -8 189 16 q 136 40 99 83 q 62 126 44 184 q 25 242 25 310 q 25 372 39 428 q 53 484 78 532 q 104 579 140 617 q 176 655 219 682 q 262 708 312 722 q 362 736 417 736 q 458 736 492 729 q 526 721 553 707 q 580 694 602 674 q 623 656 639 632 l 582 566 q 576 560 568 554 q 560 548 547 548 q 538 548 532 552 q 524 556 517 562 q 510 568 501 575 q 492 582 480 588 q 467 594 450 598 q 432 602 409 602 q 363 602 323 582 q 284 562 254 526 q 225 490 208 438 q 192 386 192 322 q 192 276 203 240 q 214 203 234 178 q 254 152 280 139 q 308 126 339 126 z"},"W":{"x_min":0,"x_max":990,"ha":990,"o":"m 64 728 l 192 728 q 213 728 226 719 q 238 709 241 693 l 292 300 q 294 286 295 272 q 296 257 297 245 q 298 230 298 217 q 306 240 314 261 q 322 282 329 300 l 478 693 q 484 706 499 718 q 514 728 535 728 l 573 728 q 594 728 607 719 q 620 709 623 693 l 679 300 q 682 283 684 262 q 687 242 689 219 q 696 242 702 262 q 708 282 715 300 l 859 693 q 864 707 880 718 q 896 728 917 728 l 1046 728 l 749 0 l 601 0 l 534 460 q 532 471 530 484 q 528 498 527 512 q 522 498 516 484 q 511 471 507 460 l 329 0 l 182 0 z"},"A":{"x_min":0,"x_max":663,"ha":663,"o":"m 644 0 l 518 0 q 497 0 484 10 q 472 20 469 36 l 446 166 l 199 166 l 145 36 q 140 22 124 11 q 108 0 88 0 l -40 0 l 308 728 l 475 728 z m 244 278 l 428 278 l 392 486 q 388 512 382 538 q 377 565 374 587 q 370 575 363 560 q 356 544 350 530 q 344 516 338 503 q 332 490 330 484 z"},"f":{"x_min":0,"x_max":335,"ha":335,"o":"m 244 412 l 197 25 l 170 -62 q 161 -91 142 -107 q 124 -123 90 -123 l 27 -123 l 92 412 l 61 419 q 48 422 39 430 q 30 438 30 451 q 30 454 31 456 l 39 518 l 104 518 l 108 547 q 114 592 132 628 q 152 664 181 689 q 210 714 249 728 q 288 742 333 742 q 350 742 365 740 q 380 738 395 733 l 381 655 q 378 642 367 638 q 356 634 344 634 q 306 634 283 614 q 260 593 254 542 l 251 518 l 356 518 l 342 412 z"},"Q":{"x_min":0,"x_max":732,"ha":732,"o":"m 734 411 q 734 356 722 304 q 710 254 688 209 q 665 164 633 127 q 601 90 562 62 l 707 -137 l 573 -137 q 544 -137 522 -130 q 498 -124 484 -102 l 414 0 q 375 -8 334 -8 q 262 -8 205 17 q 148 42 108 86 q 68 130 46 189 q 25 248 25 317 q 25 376 39 430 q 52 484 78 531 q 103 578 139 616 q 175 654 220 680 q 264 707 316 722 q 368 736 426 736 q 498 736 555 711 q 612 686 652 642 q 692 598 713 538 q 734 479 734 411 z m 567 407 q 567 452 556 489 q 546 526 525 552 q 504 578 474 592 q 444 606 406 606 q 356 606 316 586 q 277 565 249 528 q 222 490 207 437 q 192 384 192 320 q 192 276 202 239 q 213 202 233 176 q 254 150 284 136 q 314 122 352 122 q 402 122 442 142 q 482 163 509 200 q 537 238 552 290 q 567 343 567 407 z"},"w":{"x_min":0,"x_max":758,"ha":758,"o":"m 38 518 l 157 518 q 172 518 182 511 q 193 504 194 492 l 209 259 q 209 257 209 255 q 210 254 210 252 q 211 228 212 205 q 213 182 214 160 q 222 184 233 208 q 243 233 253 259 l 340 492 q 344 504 356 511 q 368 519 381 519 l 448 519 q 464 519 474 511 q 484 504 485 492 l 515 259 q 518 234 522 209 q 525 184 528 160 q 534 184 542 208 q 550 232 559 259 l 632 492 q 636 503 647 511 q 658 518 672 518 l 786 518 l 575 0 l 454 0 q 445 0 439 6 q 434 12 431 26 l 393 284 q 392 296 390 306 q 389 317 388 328 q 384 316 380 306 q 375 294 371 284 l 272 26 q 262 0 239 0 l 123 0 z"},"-":{"x_min":0,"x_max":343,"ha":343,"o":"m 61 364 l 312 364 l 296 243 l 46 243 z"},"E":{"x_min":0,"x_max":518,"ha":518,"o":"m 530 603 l 260 603 l 238 427 l 445 427 l 429 306 l 224 306 l 202 126 l 473 126 l 457 0 l 22 0 l 112 728 l 546 728 z"},"s":{"x_min":0,"x_max":398,"ha":398,"o":"m 373 410 q 366 400 360 396 q 354 392 344 392 q 334 392 324 397 q 314 402 303 407 q 292 413 278 418 q 264 422 245 422 q 210 422 196 409 q 181 396 181 374 q 181 361 189 352 q 198 342 211 334 q 224 327 242 321 q 259 314 277 307 q 295 299 312 289 q 330 279 343 264 q 356 250 365 230 q 373 210 373 182 q 373 144 358 109 q 342 74 313 48 q 284 22 243 7 q 202 -8 150 -8 q 126 -8 102 -3 q 78 2 56 10 q 35 19 18 31 q 0 42 -11 56 l 27 113 q 34 123 43 129 q 52 134 66 134 q 78 134 88 128 q 96 122 107 116 q 118 108 132 102 q 146 96 170 96 q 203 96 219 111 q 235 126 235 146 q 235 162 227 172 q 218 182 205 189 q 192 196 174 202 q 158 208 140 214 q 122 222 104 231 q 88 240 74 254 q 60 268 52 288 q 44 309 44 338 q 44 374 57 408 q 70 442 97 468 q 123 494 162 510 q 201 526 253 526 q 305 526 346 508 q 386 490 413 464 z"},">":{"x_min":0,"x_max":534,"ha":534,"o":"m 480 308 l 50 96 l 63 203 q 64 214 72 224 q 78 234 93 241 l 244 318 q 258 324 273 329 q 288 334 304 338 q 288 342 275 346 q 261 350 249 358 l 116 434 q 95 446 95 466 q 95 470 96 472 l 110 580 l 488 368 z"},"l":{"x_min":0,"x_max":263,"ha":263,"o":"m 23 0 l 114 748 l 267 748 l 176 0 z"},"8":{"x_min":0,"x_max":580,"ha":580,"o":"m 259 -8 q 206 -8 162 6 q 120 20 89 44 q 58 70 42 105 q 25 140 25 183 q 25 218 33 248 q 42 278 60 304 q 78 329 106 348 q 134 368 172 380 q 131 400 110 434 q 90 468 90 514 q 90 562 110 602 q 130 642 165 672 q 200 702 248 719 q 295 736 350 736 q 398 736 437 722 q 476 708 504 684 q 532 660 547 628 q 562 596 562 558 q 562 494 532 448 q 502 402 441 378 q 496 357 521 319 q 546 282 546 232 q 546 177 524 133 q 503 88 465 57 q 426 26 374 9 q 321 -8 259 -8 z m 273 105 q 304 105 326 114 q 348 124 363 140 q 378 157 385 180 q 392 202 392 229 q 392 249 387 266 q 382 282 371 294 q 360 306 342 312 q 324 319 299 319 q 266 319 244 310 q 221 300 207 284 q 193 268 187 245 q 181 222 181 196 q 181 176 186 160 q 192 143 203 131 q 214 119 232 112 q 249 105 273 105 z m 313 432 q 346 432 366 443 q 386 454 396 472 q 408 488 411 509 q 415 530 415 548 q 415 563 411 577 q 406 592 397 602 q 388 614 373 620 q 358 626 337 626 q 310 626 291 618 q 272 608 259 593 q 246 578 241 558 q 235 538 235 516 q 235 500 239 485 q 242 470 252 458 q 260 446 276 439 q 290 432 313 432 z"},"\\":{"x_min":0,"x_max":374,"ha":374,"o":"m 50 730 l 113 730 q 140 730 157 716 q 175 702 182 678 l 344 -50 l 281 -50 q 258 -50 237 -37 q 217 -23 210 4 z"},"e":{"x_min":0,"x_max":487,"ha":487,"o":"m 477 391 q 477 356 463 326 q 449 296 414 274 q 380 251 321 235 q 262 219 173 210 q 174 157 196 132 q 218 108 262 108 q 282 108 298 112 q 312 115 324 120 q 335 126 344 132 q 353 138 361 144 q 370 149 378 152 q 388 156 399 156 q 406 156 414 152 q 420 148 426 142 l 466 96 q 438 69 412 49 q 386 30 358 17 q 330 4 299 -2 q 268 -8 231 -8 q 185 -8 146 8 q 108 24 80 52 q 52 81 37 122 q 22 162 22 212 q 22 253 31 292 q 40 332 58 367 q 75 402 100 431 q 125 460 156 481 q 188 502 225 514 q 262 526 304 526 q 346 526 378 514 q 410 502 432 482 q 454 463 466 439 q 477 415 477 391 z m 295 421 q 256 421 228 390 q 198 360 184 306 q 232 314 262 322 q 292 330 309 340 q 326 350 331 361 q 337 372 337 385 q 337 398 327 410 q 317 421 295 421 z"},"b":{"x_min":0,"x_max":553,"ha":553,"o":"m 23 0 l 114 748 l 266 748 l 228 437 q 262 479 303 503 q 344 526 389 526 q 421 526 448 515 q 474 504 493 480 q 512 456 523 419 q 534 382 534 330 q 534 262 513 201 q 492 140 458 93 q 422 46 377 19 q 331 -8 281 -8 q 242 -8 213 7 q 184 22 164 46 l 162 40 q 155 20 144 10 q 133 0 108 0 z m 327 409 q 310 409 293 396 q 275 384 258 362 q 242 340 228 311 q 214 282 204 249 l 189 128 q 204 116 222 111 q 240 106 256 106 q 283 106 306 124 q 328 142 345 171 q 362 200 371 238 q 380 276 380 314 q 380 364 366 386 q 351 409 327 409 z"},"%":{"x_min":0,"x_max":756,"ha":756,"o":"m 386 578 q 386 531 370 493 q 354 455 327 428 q 301 401 268 386 q 234 372 199 372 q 167 372 141 383 q 115 394 96 414 q 78 435 68 464 q 58 492 58 526 q 58 573 72 611 q 87 650 112 677 q 137 704 171 720 q 205 734 244 734 q 276 734 302 723 q 328 712 347 691 q 366 670 376 642 q 386 612 386 578 z m 271 576 q 271 612 260 627 q 250 642 232 642 q 218 642 208 636 q 196 630 189 616 q 182 602 177 580 q 173 558 173 526 q 173 492 183 478 q 194 465 211 465 q 224 465 235 470 q 246 476 254 489 q 262 502 266 524 q 271 545 271 576 z m 611 706 q 620 714 631 720 q 642 728 661 728 l 770 728 l 175 21 q 166 12 155 6 q 144 0 128 0 l 17 0 z m 727 197 q 727 150 711 112 q 694 74 668 48 q 642 20 608 6 q 575 -9 540 -9 q 508 -9 482 2 q 456 14 438 34 q 419 54 409 83 q 399 112 399 146 q 399 192 414 231 q 428 270 453 297 q 478 324 512 340 q 546 354 585 354 q 617 354 643 343 q 670 332 688 311 q 707 290 717 261 q 727 232 727 197 z m 612 196 q 612 232 601 246 q 590 260 573 260 q 560 260 548 254 q 538 248 530 235 q 522 221 518 199 q 514 177 514 146 q 514 112 524 98 q 534 84 552 84 q 565 84 576 90 q 587 95 595 108 q 603 122 608 143 q 612 164 612 196 z"},"m":{"x_min":0,"x_max":800,"ha":800,"o":"m 19 0 l 82 518 l 162 518 q 186 518 200 507 q 213 496 213 470 l 213 440 q 246 484 282 505 q 319 526 359 526 q 403 526 432 498 q 461 470 469 415 q 504 472 544 500 q 586 526 637 526 q 666 526 690 516 q 714 506 730 486 q 747 466 756 437 q 766 408 766 370 q 766 360 765 350 q 764 340 763 330 l 724 0 l 571 0 l 610 330 q 611 338 612 345 q 612 352 612 358 q 612 384 604 394 q 596 404 580 404 q 564 404 550 396 q 536 388 523 372 q 510 356 500 334 q 490 312 482 284 l 448 0 l 295 0 l 334 330 q 335 338 336 345 q 336 352 336 358 q 336 384 328 394 q 320 404 304 404 q 288 404 274 396 q 260 387 247 371 q 234 355 224 332 q 213 310 205 282 l 171 0 z"},"#":{"x_min":0,"x_max":580,"ha":580,"o":"m 418 198 l 359 0 l 289 0 q 272 0 262 12 q 252 24 252 42 q 252 46 253 50 q 254 54 255 60 l 296 198 l 210 198 l 167 52 q 163 38 155 28 q 148 18 138 12 q 128 6 117 3 q 106 0 94 0 l 27 0 l 88 198 l 41 198 q 24 198 15 206 q 6 213 6 229 q 6 242 11 257 l 25 303 l 114 303 l 151 426 l 50 426 l 69 486 q 76 508 92 519 q 108 529 141 529 l 178 529 l 223 680 q 230 702 249 715 q 268 728 292 728 l 361 728 l 300 529 l 386 529 l 447 728 l 514 728 q 533 728 544 718 q 556 708 556 692 q 556 684 554 678 l 510 529 l 608 529 l 588 469 q 580 446 564 436 q 548 426 517 426 l 482 426 l 446 303 l 503 303 q 520 303 529 296 q 538 288 538 272 q 538 260 533 244 l 519 198 z m 236 303 l 324 303 l 360 426 l 274 426 z"},",":{"x_min":0,"x_max":236,"ha":236,"o":"m 15 88 q 15 104 21 118 q 27 132 38 142 q 50 152 65 158 q 80 164 99 164 q 122 164 138 156 q 154 148 166 135 q 176 122 182 105 q 187 88 187 68 q 187 44 179 15 q 171 -13 155 -42 q 140 -70 116 -98 q 92 -125 62 -148 l 35 -124 q 30 -118 27 -114 q 24 -109 24 -102 q 24 -94 33 -84 q 42 -74 53 -62 q 64 -49 75 -33 q 86 -18 91 2 q 74 4 60 11 q 46 18 36 29 q 26 40 20 56 q 15 70 15 88 z"},"n":{"x_min":0,"x_max":553,"ha":553,"o":"m 322 0 l 361 330 q 362 338 362 344 q 363 351 363 357 q 363 384 354 394 q 344 404 326 404 q 309 404 290 394 q 272 383 255 364 q 238 345 224 318 q 210 290 202 258 l 174 0 l 19 0 l 81 518 l 161 518 q 185 518 198 507 q 212 496 212 470 l 212 429 q 250 479 294 503 q 338 526 386 526 q 415 526 439 516 q 464 506 481 485 q 498 465 508 436 q 518 406 518 368 q 518 358 518 349 q 517 340 516 330 l 477 0 z"},"h":{"x_min":0,"x_max":557,"ha":557,"o":"m 23 0 l 114 748 l 269 748 l 232 450 q 268 490 308 508 q 347 526 389 526 q 418 526 443 516 q 468 506 485 485 q 502 465 512 436 q 522 406 522 368 q 522 358 522 349 q 521 340 520 330 l 481 0 l 326 0 l 365 330 q 366 338 366 344 q 367 351 367 357 q 367 384 358 394 q 348 405 329 405 q 314 405 296 396 q 280 386 264 370 q 248 352 234 328 q 220 304 212 275 l 178 0 z"},"z":{"x_min":0,"x_max":449,"ha":449,"o":"m 446 456 q 444 440 437 426 q 430 412 421 401 l 197 115 l 401 115 l 387 0 l -1 0 l 7 63 q 8 72 15 87 q 22 101 32 114 l 258 404 l 61 404 l 75 518 l 454 518 z"},"B":{"x_min":0,"x_max":604,"ha":604,"o":"m 22 0 l 112 728 l 362 728 q 426 728 471 716 q 516 704 545 682 q 574 660 587 629 q 600 598 600 560 q 600 530 592 502 q 584 474 568 450 q 551 427 524 408 q 498 388 460 376 q 520 360 548 326 q 576 292 576 240 q 576 190 557 146 q 538 102 501 70 q 464 38 412 19 q 360 0 294 0 z m 223 311 l 200 122 l 307 122 q 337 122 358 131 q 378 140 391 156 q 404 172 409 192 q 415 214 415 238 q 415 255 411 268 q 406 282 396 291 q 386 300 369 306 q 352 311 328 311 z m 236 419 l 314 419 q 342 419 364 424 q 386 430 401 443 q 417 456 426 478 q 434 500 434 533 q 434 574 413 590 q 392 607 347 607 l 259 607 z"},"K":{"x_min":0,"x_max":660,"ha":660,"o":"m 237 430 l 261 430 q 278 430 292 436 q 306 442 314 454 l 487 696 q 501 716 519 722 q 537 728 561 728 l 702 728 l 473 431 q 462 416 449 406 q 436 396 423 388 q 440 382 453 370 q 466 358 475 338 l 629 0 l 484 0 q 470 0 460 2 q 450 4 444 8 q 437 12 432 17 q 428 23 425 30 l 312 286 q 306 300 293 306 q 281 312 260 312 l 222 312 l 184 0 l 22 0 l 111 728 l 274 728 z"},"R":{"x_min":0,"x_max":614,"ha":614,"o":"m 218 272 l 184 0 l 22 0 l 111 728 l 332 728 q 399 728 446 714 q 494 700 524 675 q 554 650 567 616 q 581 582 581 542 q 581 501 570 465 q 560 429 539 399 q 518 368 489 345 q 459 322 421 307 q 436 298 449 286 q 462 274 470 256 l 576 0 l 429 0 q 408 0 394 8 q 380 16 375 31 l 296 246 q 290 260 281 266 q 272 272 254 272 z m 259 607 l 232 384 l 291 384 q 326 384 350 395 q 375 406 390 424 q 406 442 412 466 q 419 490 419 516 q 419 537 413 554 q 407 570 394 582 q 382 594 362 600 q 343 607 317 607 z"},"T":{"x_min":0,"x_max":552,"ha":552,"o":"m 603 728 l 586 600 l 401 600 l 327 0 l 165 0 l 238 600 l 52 600 l 68 728 z"},"P":{"x_min":0,"x_max":590,"ha":590,"o":"m 214 246 l 184 0 l 22 0 l 111 728 l 352 728 q 417 728 463 713 q 510 697 539 669 q 569 642 583 604 q 597 566 597 522 q 597 463 579 412 q 560 362 523 324 q 486 288 428 266 q 370 246 292 246 z m 259 607 l 230 368 l 308 368 q 343 368 367 378 q 390 388 405 407 q 420 426 426 452 q 433 478 433 509 q 433 530 427 548 q 422 566 410 580 q 398 592 379 600 q 361 607 336 607 z"},"|":{"x_min":0,"x_max":300,"ha":300,"o":"m 60 778 l 180 778 l 180 -164 l 60 -164 z"},"t":{"x_min":0,"x_max":368,"ha":368,"o":"m 69 112 q 69 116 69 120 q 69 126 70 135 q 70 144 72 159 q 74 174 77 200 l 104 412 l 62 412 q 52 412 46 418 q 40 424 40 436 q 40 437 40 445 q 42 454 42 463 q 44 472 44 480 q 46 488 46 489 l 47 502 l 126 518 l 169 645 q 176 669 203 669 l 287 669 l 268 518 l 384 518 l 371 412 l 255 412 l 230 208 q 228 188 226 176 q 225 164 224 158 q 224 152 223 149 q 223 147 223 146 q 223 132 230 122 q 236 112 251 112 q 259 112 264 114 q 270 116 274 118 q 278 120 281 122 q 284 124 289 124 q 296 124 300 121 q 303 118 306 110 l 340 37 q 309 14 274 3 q 238 -8 202 -8 q 172 -8 148 0 q 124 8 107 24 q 90 40 80 62 q 70 84 69 112 z"},"M":{"x_min":0,"x_max":866,"ha":866,"o":"m 415 320 q 426 288 433 256 q 441 272 450 288 q 458 304 468 320 l 691 704 q 701 720 716 724 q 731 728 745 728 l 873 728 l 783 0 l 640 0 l 691 424 q 692 438 696 454 q 699 470 703 488 l 484 112 q 474 94 458 86 q 442 78 423 78 l 401 78 q 382 78 368 86 q 354 95 348 112 l 220 488 q 219 472 218 456 q 218 440 216 426 l 166 0 l 22 0 l 112 728 l 236 728 q 246 728 254 728 q 262 728 269 725 q 275 723 280 718 q 284 713 287 704 l 415 320 z"},"g":{"x_min":0,"x_max":507,"ha":507,"o":"m 452 364 q 452 332 443 309 q 434 286 424 266 q 414 246 405 226 q 396 204 396 176 q 396 156 403 138 q 410 121 418 103 q 426 85 432 65 q 439 45 439 19 q 439 -21 422 -57 q 404 -92 371 -119 q 338 -146 290 -162 q 242 -178 180 -178 q 130 -178 90 -167 q 50 -156 22 -138 q -6 -120 -21 -96 q -36 -71 -36 -42 q -36 2 -14 31 q 8 60 44 78 q 78 96 121 103 q 164 110 204 110 q 227 110 248 108 q 268 106 286 102 q 285 108 285 115 q 285 121 285 128 q 285 154 298 188 q 279 176 254 168 q 228 160 191 160 q 162 160 134 170 q 108 180 87 200 q 66 220 54 250 q 41 280 41 322 q 41 360 56 397 q 70 434 100 463 q 129 492 172 509 q 216 526 273 526 q 302 526 330 520 q 357 513 380 500 l 529 500 l 522 451 q 518 420 493 412 l 449 398 q 452 381 452 364 z m 236 250 q 254 250 268 260 q 282 270 291 285 q 300 300 305 319 q 310 338 310 358 q 310 390 296 408 q 283 426 255 426 q 236 426 223 417 q 209 408 200 394 q 191 380 186 360 q 182 342 182 321 q 182 288 196 269 q 209 250 236 250 z m 298 7 q 298 10 298 13 q 298 16 298 18 q 272 22 251 24 q 230 26 212 26 q 185 26 166 22 q 146 18 134 12 q 122 5 116 -4 q 111 -14 111 -24 q 111 -49 130 -62 q 148 -75 193 -75 q 216 -75 236 -69 q 255 -63 269 -52 q 282 -42 290 -26 q 298 -12 298 7 z"},"j":{"x_min":0,"x_max":270,"ha":270,"o":"m 245 518 l 182 -1 q 178 -38 164 -70 q 150 -102 126 -126 q 102 -150 68 -164 q 34 -178 -10 -178 q -32 -178 -48 -176 q -63 -174 -79 -170 l -64 -88 q -62 -78 -55 -72 q -48 -68 -32 -68 q -16 -68 -5 -64 q 6 -62 12 -54 q 20 -46 24 -34 q 28 -21 30 -1 l 93 518 z m 268 660 q 268 642 260 626 q 252 610 239 597 q 226 585 209 578 q 192 570 175 570 q 158 570 142 578 q 126 585 113 597 q 101 610 94 626 q 86 642 86 660 q 86 679 94 696 q 101 712 114 724 q 126 737 142 744 q 158 752 176 752 q 194 752 210 744 q 227 738 240 725 q 252 712 260 696 q 268 680 268 660 z"},"i":{"x_min":0,"x_max":273,"ha":273,"o":"m 244 518 l 182 0 l 29 0 l 91 518 z m 273 660 q 273 642 265 626 q 257 610 244 597 q 231 585 214 578 q 198 570 180 570 q 162 570 146 578 q 130 585 118 597 q 106 610 98 626 q 91 642 91 660 q 91 679 98 696 q 106 712 119 724 q 132 737 148 744 q 164 752 181 752 q 199 752 216 744 q 232 738 245 725 q 258 712 265 696 q 273 680 273 660 z"},"y":{"x_min":0,"x_max":519,"ha":519,"o":"m 212 -135 q 204 -150 192 -158 q 180 -164 164 -164 l 48 -164 l 166 46 l 38 518 l 169 518 q 186 518 194 510 q 202 502 205 492 l 250 268 q 253 254 256 239 q 258 225 260 210 q 266 225 272 240 q 280 254 286 269 l 382 492 q 388 503 400 511 q 411 518 423 518 l 548 518 z"},"@":{"x_min":0,"x_max":743,"ha":743,"o":"m 508 91 q 494 91 480 94 q 467 98 456 105 q 444 112 436 124 q 428 135 423 152 q 392 119 360 105 q 328 92 293 92 q 266 92 247 101 q 227 110 214 127 q 201 144 194 166 q 188 188 188 215 q 188 246 196 278 q 204 310 220 340 q 236 370 259 397 q 282 424 314 444 q 346 464 385 475 q 424 486 471 486 q 492 486 508 485 q 525 484 539 480 q 554 478 566 473 q 578 469 591 463 l 522 274 q 515 254 512 240 q 508 225 508 214 q 508 196 518 188 q 526 180 541 180 q 560 180 578 197 q 595 214 608 243 q 621 272 628 310 q 636 348 636 392 q 636 444 622 484 q 608 524 582 551 q 556 578 518 592 q 480 606 431 606 q 366 606 310 578 q 256 550 216 501 q 176 452 154 385 q 131 318 131 242 q 131 176 148 125 q 166 75 198 41 q 230 7 276 -10 q 322 -28 378 -28 q 414 -28 444 -24 q 474 -20 498 -14 q 522 -8 539 -1 q 556 6 567 13 q 576 18 583 20 q 590 22 596 22 q 609 22 616 14 q 624 6 626 -4 l 637 -44 q 612 -60 583 -74 q 554 -88 520 -99 q 486 -110 448 -115 q 410 -121 367 -121 q 288 -121 224 -96 q 161 -70 116 -23 q 72 24 47 90 q 23 156 23 236 q 23 298 38 357 q 53 415 80 466 q 108 518 146 560 q 184 603 231 634 q 278 664 331 681 q 385 698 443 698 q 505 698 559 676 q 614 654 654 614 q 694 574 718 518 q 741 462 741 392 q 741 330 723 275 q 705 220 674 179 q 642 138 600 115 q 557 91 508 91 z m 335 184 q 344 184 354 188 q 363 192 372 200 q 381 209 390 223 q 398 238 406 258 l 456 396 q 446 397 435 397 q 411 397 388 383 q 364 370 346 346 q 327 324 316 293 q 304 263 304 230 q 304 184 335 184 z"},".":{"x_min":0,"x_max":236,"ha":236,"o":"m 12 78 q 12 96 19 112 q 26 128 37 139 q 49 150 65 157 q 81 164 100 164 q 118 164 134 157 q 150 150 162 139 q 174 128 181 112 q 188 96 188 78 q 188 60 181 45 q 174 29 162 18 q 150 6 134 0 q 118 -7 100 -7 q 81 -7 65 0 q 49 6 37 18 q 26 29 19 45 q 12 60 12 78 z"},"p":{"x_min":0,"x_max":544,"ha":544,"o":"m -1 -164 l 82 518 l 162 518 q 186 518 200 507 q 213 496 213 470 l 213 424 q 248 472 292 499 q 336 526 385 526 q 417 526 444 515 q 470 504 489 480 q 508 456 519 419 q 530 382 530 330 q 530 262 509 201 q 488 140 454 93 q 418 46 373 19 q 327 -8 277 -8 q 244 -8 219 2 q 194 13 174 30 l 150 -164 z m 323 409 q 307 409 290 397 q 272 384 256 363 q 240 342 225 314 q 211 285 202 252 l 186 128 q 200 116 218 111 q 236 106 252 106 q 279 106 302 124 q 324 142 341 171 q 358 200 367 238 q 376 276 376 314 q 376 364 362 386 q 347 409 323 409 z"},"X":{"x_min":0,"x_max":662,"ha":662,"o":"m 236 388 l 78 728 l 226 728 q 242 728 249 724 q 256 720 260 710 l 356 480 q 358 485 362 490 q 364 494 368 500 l 496 708 q 503 719 511 724 q 520 728 531 728 l 702 728 l 460 396 l 635 0 l 489 0 q 473 0 464 8 q 455 16 451 26 l 344 294 q 342 290 339 287 q 337 284 335 281 l 174 26 q 164 12 152 6 q 140 0 125 0 l -38 0 z"},"*":{"x_min":0,"x_max":368,"ha":368,"o":"m 168 410 l 179 497 q 182 518 189 536 q 182 528 174 523 q 166 518 156 512 l 85 469 l 58 526 l 129 570 q 139 576 149 580 q 158 584 168 586 q 150 588 133 600 l 72 645 l 114 703 l 175 658 q 182 653 190 648 q 196 642 202 636 q 200 644 200 656 q 200 660 200 665 q 200 669 201 673 l 212 761 l 282 761 l 271 674 q 270 664 267 652 q 265 640 260 631 q 268 638 276 646 q 284 653 294 658 l 365 702 l 392 644 l 321 600 q 311 595 301 591 q 291 588 281 586 q 290 584 300 580 q 308 576 317 570 l 377 526 l 336 469 l 275 512 q 267 518 260 523 q 254 528 248 535 q 249 530 250 525 q 250 520 250 514 q 250 510 250 506 q 250 502 249 498 l 238 410 z"},"Y":{"x_min":0,"x_max":628,"ha":628,"o":"m 400 279 l 365 0 l 202 0 l 236 278 l 49 728 l 194 728 q 215 728 227 719 q 238 709 244 693 l 314 472 q 321 450 327 430 q 332 410 336 390 q 346 410 358 430 q 369 450 382 472 l 506 693 q 514 706 528 718 q 542 728 563 728 l 698 728 z"},"c":{"x_min":0,"x_max":441,"ha":441,"o":"m 429 91 q 404 64 381 44 q 358 26 334 14 q 309 2 281 -3 q 254 -8 220 -8 q 174 -8 138 8 q 102 23 76 52 q 50 80 36 120 q 22 161 22 212 q 22 275 43 332 q 64 389 101 432 q 138 475 189 500 q 240 526 301 526 q 353 526 390 508 q 428 490 457 452 l 407 394 q 402 389 394 385 q 388 380 379 380 q 369 380 362 385 q 356 389 348 394 q 340 398 328 403 q 316 407 298 407 q 275 407 253 394 q 232 380 214 356 q 198 330 187 294 q 177 258 177 211 q 177 185 183 166 q 189 146 200 134 q 210 121 224 114 q 238 108 254 108 q 278 108 293 115 q 308 122 318 130 q 330 138 339 144 q 348 151 362 151 q 370 151 377 148 q 384 144 389 138 l 429 91 z"},"!":{"x_min":0,"x_max":349,"ha":349,"o":"m 305 728 l 270 442 q 264 396 254 351 q 242 306 228 258 l 127 258 q 126 277 125 296 q 124 314 124 332 q 124 360 126 387 q 128 414 131 442 l 166 728 z m 75 78 q 75 96 82 112 q 88 128 100 139 q 112 150 128 157 q 144 164 163 164 q 182 164 198 157 q 214 150 226 139 q 238 128 244 112 q 251 96 251 78 q 251 60 244 45 q 238 29 226 18 q 214 6 198 0 q 182 -7 163 -7 q 144 -7 128 0 q 112 6 100 18 q 88 29 82 45 q 75 60 75 78 z"},"/":{"x_min":0,"x_max":375,"ha":375,"o":"m 102 4 q 96 -10 86 -20 q 76 -30 65 -37 q 54 -44 41 -47 q 29 -50 18 -50 l -46 -50 l 295 678 q 306 704 328 716 q 350 730 377 730 l 440 730 z"},"[":{"x_min":0,"x_max":276,"ha":276,"o":"m -11 -160 l 104 778 l 314 778 l 307 720 q 305 706 293 696 q 280 685 264 685 l 218 685 l 124 -67 l 173 -67 q 188 -67 197 -76 q 206 -86 206 -99 q 206 -100 206 -101 q 206 -102 205 -108 q 204 -114 203 -126 q 202 -138 199 -160 z"},"6":{"x_min":0,"x_max":580,"ha":580,"o":"m 369 460 q 406 460 440 448 q 474 436 500 412 q 527 389 543 354 q 559 318 559 271 q 559 214 537 163 q 514 112 475 74 q 435 36 381 14 q 326 -8 263 -8 q 208 -8 165 9 q 122 26 93 55 q 64 85 48 126 q 33 168 33 216 q 33 284 62 345 q 90 406 146 470 l 339 693 q 352 708 374 718 q 396 728 423 728 l 556 728 l 288 446 q 306 452 326 456 q 346 460 369 460 z m 175 212 q 175 188 181 170 q 188 151 200 138 q 212 124 231 117 q 250 110 275 110 q 302 110 326 120 q 350 130 368 149 q 386 168 397 192 q 408 218 408 247 q 408 272 400 291 q 393 310 380 324 q 366 337 346 344 q 327 352 303 352 q 276 352 252 342 q 229 332 212 313 q 194 295 185 269 q 175 244 175 212 z"},"r":{"x_min":0,"x_max":378,"ha":378,"o":"m 19 0 l 82 518 l 162 518 q 186 518 200 507 q 213 496 213 470 l 213 412 q 243 464 278 493 q 313 522 350 522 q 372 522 392 512 l 364 368 q 338 380 316 380 q 277 380 247 345 q 218 310 199 233 l 171 0 z"},"2":{"x_min":0,"x_max":580,"ha":580,"o":"m 357 736 q 406 736 444 722 q 483 708 510 683 q 536 658 551 624 q 565 590 565 550 q 565 505 552 468 q 538 430 516 397 q 492 364 461 332 q 430 302 394 268 l 229 118 q 257 126 284 130 q 311 135 334 135 l 479 135 q 502 135 514 124 q 526 112 526 93 q 526 92 525 90 q 525 88 524 79 q 523 70 521 52 q 518 33 514 0 l 5 0 l 11 48 q 12 62 20 78 q 28 94 44 108 l 282 320 q 317 352 342 379 q 366 406 381 432 q 396 457 403 482 q 410 508 410 536 q 410 572 390 593 q 371 614 332 614 q 314 614 298 609 q 282 604 270 594 q 256 585 246 572 q 236 560 230 546 q 220 524 206 514 q 192 505 172 505 q 161 505 151 507 l 74 520 q 89 574 116 615 q 144 655 181 682 q 218 709 263 722 q 308 736 357 736 z"},"{":{"x_min":0,"x_max":276,"ha":276,"o":"m 48 216 q 48 238 39 253 q 30 267 7 267 l 18 350 q 36 350 48 358 q 60 366 66 382 q 72 398 75 422 q 77 446 77 478 q 77 484 77 492 q 76 500 76 510 q 76 519 76 528 q 76 536 76 542 q 76 599 88 643 q 101 686 127 716 q 154 746 194 762 q 236 778 292 778 l 315 778 l 307 712 q 306 705 302 700 q 298 695 294 692 q 288 688 283 686 q 278 685 274 685 q 246 685 230 664 q 216 644 211 608 q 208 580 206 556 q 206 532 205 509 q 204 486 203 465 q 202 443 200 420 q 198 402 190 384 q 184 366 172 351 q 161 336 146 325 q 130 314 111 308 q 142 297 158 271 q 173 245 173 214 q 173 185 167 158 q 162 130 154 104 q 148 76 142 49 q 136 22 136 -8 q 136 -35 147 -51 q 158 -67 182 -67 q 190 -67 199 -73 q 208 -80 208 -92 q 208 -96 207 -106 q 206 -115 204 -126 q 203 -136 202 -146 q 200 -156 200 -160 l 176 -160 q 132 -160 99 -149 q 67 -138 46 -119 q 26 -99 16 -72 q 6 -44 6 -11 q 6 21 12 50 q 19 80 27 107 q 35 134 42 162 q 48 188 48 216 z"},"9":{"x_min":0,"x_max":580,"ha":580,"o":"m 263 285 q 230 285 198 296 q 166 308 142 330 q 116 352 101 386 q 86 420 86 466 q 86 522 108 570 q 129 619 167 656 q 206 692 258 714 q 310 736 372 736 q 425 736 466 720 q 508 704 536 676 q 564 648 579 609 q 594 570 594 524 q 594 484 586 449 q 578 414 564 382 q 550 350 529 320 q 508 289 483 258 l 297 34 q 285 19 264 10 q 242 0 216 0 l 78 0 l 342 277 q 350 286 358 294 q 365 302 372 310 q 348 298 320 291 q 292 285 263 285 z m 452 522 q 452 545 445 563 q 438 580 425 593 q 412 605 394 612 q 376 618 355 618 q 328 618 307 608 q 286 598 270 581 q 255 563 246 539 q 238 515 238 486 q 238 442 261 418 q 284 394 330 394 q 358 394 381 404 q 404 413 419 430 q 435 446 444 470 q 452 494 452 522 z"}," ":{"x_min":0,"x_max":193,"ha":193,"o":""},"I":{"x_min":0,"x_max":296,"ha":296,"o":"m 200 0 l 36 0 l 125 728 l 289 728 z"},"H":{"x_min":0,"x_max":696,"ha":696,"o":"m 613 0 l 449 0 l 487 310 l 224 310 l 186 0 l 22 0 l 112 728 l 276 728 l 238 421 l 501 421 l 539 728 l 703 728 z"},"4":{"x_min":0,"x_max":580,"ha":580,"o":"m 494 280 l 569 280 l 557 197 q 556 186 547 178 q 538 170 524 170 l 480 170 l 460 0 l 325 0 l 346 170 l 54 170 q 39 170 27 179 q 15 188 14 204 l 8 274 l 402 728 l 549 728 z m 383 480 q 385 496 388 513 q 392 530 396 548 l 170 280 l 359 280 z"},"~":{"x_min":0,"x_max":580,"ha":580,"o":"m 335 338 q 359 338 372 354 q 385 370 385 400 l 510 400 q 510 357 499 323 q 488 289 466 265 q 446 242 415 229 q 384 216 345 216 q 318 216 295 222 q 272 228 252 235 q 232 242 215 248 q 198 254 185 254 q 161 254 148 238 q 135 222 135 192 l 10 192 q 10 235 21 269 q 32 303 54 327 q 74 350 105 363 q 136 376 175 376 q 202 376 225 370 q 248 364 268 357 q 288 350 305 344 q 322 338 335 338 z"},"D":{"x_min":0,"x_max":682,"ha":682,"o":"m 683 411 q 683 352 670 298 q 656 245 631 199 q 606 154 570 117 q 534 80 490 54 q 446 28 394 14 q 342 0 284 0 l 22 0 l 112 728 l 374 728 q 446 728 503 704 q 560 680 600 638 q 640 595 662 537 q 683 479 683 411 z m 516 407 q 516 452 506 488 q 496 524 475 550 q 455 575 426 589 q 396 603 358 603 l 260 603 l 202 126 l 300 126 q 350 126 390 145 q 430 165 458 202 q 486 238 501 290 q 516 342 516 407 z"},"^":{"x_min":0,"x_max":580,"ha":580,"o":"m 557 384 l 443 384 q 430 384 420 391 q 412 398 406 408 l 344 526 q 336 542 328 557 q 321 572 316 586 q 310 572 304 557 q 298 542 289 526 l 229 408 q 224 398 214 391 q 205 384 190 384 l 70 384 l 263 728 l 364 728 z"},"0":{"x_min":0,"x_max":580,"ha":580,"o":"m 348 736 q 398 736 440 717 q 482 698 511 662 q 540 624 557 569 q 573 513 573 439 q 573 326 548 242 q 524 158 481 102 q 438 46 380 19 q 322 -8 256 -8 q 206 -8 164 10 q 122 29 93 66 q 64 104 47 159 q 31 214 31 288 q 31 402 56 486 q 80 570 123 626 q 166 681 223 708 q 281 736 348 736 z m 276 112 q 306 112 332 132 q 358 152 377 192 q 396 232 406 294 q 417 354 417 436 q 417 490 409 524 q 402 558 389 579 q 376 600 360 608 q 344 616 328 616 q 297 616 271 596 q 246 576 227 536 q 208 495 198 434 q 187 373 187 292 q 187 238 195 204 q 202 169 215 149 q 228 128 244 120 q 260 112 276 112 z"},"F":{"x_min":0,"x_max":512,"ha":512,"o":"m 530 603 l 260 603 l 236 411 l 462 411 l 445 286 l 221 286 l 186 0 l 22 0 l 112 728 l 546 728 z"},"`":{"x_min":0,"x_max":306,"ha":306,"o":"m 139 736 q 161 736 171 728 q 182 721 187 706 l 234 584 l 149 584 q 132 584 123 588 q 113 593 104 604 l -1 736 z"},"k":{"x_min":0,"x_max":540,"ha":540,"o":"m 270 748 l 218 329 l 229 329 q 242 329 250 333 q 258 337 266 348 l 373 494 q 382 506 394 512 q 406 518 422 518 l 561 518 l 416 334 q 406 321 394 311 q 382 301 369 294 q 380 285 387 274 q 395 262 401 248 l 505 0 l 370 0 q 354 0 343 6 q 332 12 326 26 l 254 210 q 248 222 242 226 q 236 230 222 230 l 206 230 l 178 0 l 25 0 l 117 748 z"},"u":{"x_min":0,"x_max":552,"ha":552,"o":"m 231 518 l 192 190 q 191 182 190 175 q 190 168 190 162 q 190 136 199 125 q 208 114 227 114 q 242 114 260 124 q 277 133 293 150 q 309 166 323 190 q 336 214 346 244 l 379 518 l 534 518 l 471 0 l 392 0 q 337 0 337 51 l 337 84 q 300 37 256 14 q 214 -8 167 -8 q 138 -8 114 2 q 90 13 72 33 q 54 54 44 83 q 34 113 34 152 q 34 160 35 170 q 36 180 37 190 l 76 518 z"},"]":{"x_min":0,"x_max":276,"ha":276,"o":"m -15 -104 q -12 -88 -1 -78 q 10 -67 27 -67 l 74 -67 l 168 685 l 119 685 q 104 685 94 694 q 84 703 84 716 q 84 717 85 718 q 85 720 85 720 l 93 778 l 303 778 l 187 -160 l -23 -160 z"},"U":{"x_min":0,"x_max":667,"ha":667,"o":"m 320 128 q 350 128 376 140 q 400 152 420 173 q 438 195 451 226 q 464 257 468 296 l 521 728 l 684 728 l 631 296 q 622 229 596 173 q 569 118 526 77 q 484 37 427 14 q 370 -8 303 -8 q 242 -8 194 10 q 146 29 114 63 q 81 96 64 144 q 47 190 47 247 q 47 270 50 296 l 102 728 l 265 728 l 212 296 q 211 286 210 278 q 210 269 210 260 q 210 198 238 163 q 266 128 320 128 z"},"o":{"x_min":0,"x_max":520,"ha":520,"o":"m 237 107 q 263 107 284 123 q 304 138 318 166 q 332 193 340 229 q 348 266 348 306 q 348 363 333 387 q 318 412 283 412 q 257 412 236 396 q 216 380 202 353 q 188 326 180 290 q 172 253 172 212 q 172 156 187 132 q 202 107 237 107 z m 223 -8 q 180 -8 142 6 q 104 21 76 49 q 48 76 33 117 q 17 158 17 211 q 17 280 40 338 q 62 396 101 438 q 140 480 190 503 q 241 526 297 526 q 340 526 378 512 q 416 498 443 470 q 471 442 487 401 q 503 360 503 308 q 503 240 480 182 q 458 124 419 82 q 380 40 330 16 q 279 -8 223 -8 z"},"N":{"x_min":0,"x_max":696,"ha":696,"o":"m 198 728 q 208 728 216 728 q 223 727 229 724 q 234 722 239 716 q 244 712 248 704 l 504 254 q 504 271 506 287 q 508 303 510 317 l 559 728 l 703 728 l 613 0 l 528 0 q 509 0 496 6 q 484 11 475 27 l 220 476 q 220 462 218 450 q 217 436 216 425 l 166 0 l 22 0 l 112 728 l 198 728 z"},"+":{"x_min":0,"x_max":580,"ha":580,"o":"m 392 588 l 368 390 l 555 390 l 541 282 l 354 282 l 330 82 l 208 82 l 233 282 l 47 282 l 61 390 l 246 390 l 271 588 z"},"G":{"x_min":0,"x_max":653,"ha":653,"o":"m 355 118 q 385 118 409 123 q 433 128 455 138 l 469 256 l 407 256 q 393 256 386 263 q 378 270 378 280 l 389 374 l 632 374 l 594 70 q 566 50 536 35 q 506 20 473 10 q 440 1 404 -4 q 368 -8 327 -8 q 260 -8 204 17 q 148 42 108 85 q 68 128 47 188 q 25 248 25 317 q 25 378 39 432 q 52 487 78 534 q 104 580 139 618 q 175 655 219 682 q 262 708 313 722 q 364 736 419 736 q 466 736 503 728 q 541 720 571 705 q 601 691 624 672 q 648 654 666 634 l 613 568 q 595 546 572 546 q 559 546 545 555 q 527 566 512 575 q 496 584 480 590 q 464 596 447 598 q 429 602 407 602 q 360 602 320 581 q 280 561 252 524 q 224 488 208 436 q 192 384 192 322 q 192 274 204 236 q 216 198 237 172 q 258 146 288 132 q 318 118 355 118 z"},"q":{"x_min":0,"x_max":532,"ha":532,"o":"m 429 -164 l 327 -164 q 314 -164 306 -160 q 297 -156 292 -150 q 286 -143 284 -135 q 282 -127 282 -119 q 282 -114 282 -112 l 306 71 q 275 34 239 13 q 202 -8 160 -8 q 132 -8 106 3 q 80 14 60 37 q 40 60 28 95 q 16 130 16 178 q 16 249 42 312 q 68 376 114 423 q 160 470 224 498 q 287 526 363 526 q 400 526 438 522 q 476 516 513 504 z m 222 114 q 238 114 254 127 q 270 140 285 162 q 299 184 311 213 q 323 242 332 275 l 350 420 l 341 420 q 303 420 272 403 q 240 386 218 357 q 196 328 183 289 q 171 250 171 206 q 171 181 175 164 q 179 146 186 135 q 192 124 202 120 q 211 114 222 114 z"},"d":{"x_min":0,"x_max":554,"ha":554,"o":"m 384 0 q 370 0 360 4 q 350 8 344 14 q 338 20 336 30 q 334 38 334 49 l 334 92 q 298 46 256 19 q 212 -8 164 -8 q 132 -8 106 3 q 79 14 60 38 q 40 62 30 100 q 19 137 19 189 q 19 234 28 277 q 38 320 55 357 q 72 394 96 426 q 119 457 147 479 q 176 502 207 514 q 238 526 272 526 q 304 526 330 516 q 356 505 375 488 l 408 748 l 560 748 l 467 0 z m 226 110 q 242 110 259 122 q 276 134 293 155 q 309 176 323 204 q 337 232 347 265 l 363 391 q 348 402 331 408 q 313 412 297 412 q 270 412 247 394 q 224 376 208 347 q 192 318 182 280 q 173 243 173 204 q 173 154 188 132 q 202 110 226 110 z"},"1":{"x_min":0,"x_max":580,"ha":580,"o":"m 111 108 l 252 108 l 299 500 l 310 546 l 211 470 q 202 463 194 461 q 186 459 179 459 q 166 459 157 464 q 148 470 144 476 l 105 538 l 354 729 l 478 729 l 402 108 l 524 108 l 510 0 l 98 0 z"},"5":{"x_min":0,"x_max":580,"ha":580,"o":"m 550 666 q 548 652 542 639 q 536 626 524 617 q 512 608 494 602 q 477 598 453 598 l 275 598 l 238 469 q 258 473 277 474 q 296 476 314 476 q 367 476 407 461 q 448 446 474 420 q 501 394 514 358 q 528 322 528 282 q 528 218 504 165 q 480 112 438 73 q 396 35 339 14 q 282 -8 217 -8 q 182 -8 150 -1 q 119 6 93 19 q 66 32 45 48 q 23 64 6 83 l 60 146 q 68 156 79 160 q 90 164 100 164 q 114 164 127 156 q 139 148 154 139 q 169 129 190 121 q 210 113 241 113 q 276 113 302 126 q 328 138 344 158 q 361 179 369 206 q 377 233 377 262 q 377 306 350 332 q 323 358 268 358 q 248 358 223 354 q 198 350 170 341 l 81 366 l 188 728 l 558 728 z"}}}
